#!OML:ASF E:\Steps\Project 1\Capture day 1\Session 2\Subject.ASF
:FULLY-SPECIFIED
:DEGREES
629
root -5.77775 15.9975 -10.0477 42.7298 81.316 14.8836
lowerback -29.164 -2.76674 -5.44877
upperback -1.11588 -1.45565 -0.785691
thorax 14.2809 -0.881211 1.57163
lowerneck -22.7684 4.64816 14.4677
upperneck 43.516 13.0494 -17.6191
head 31.0075 7.05361 -10.833
rclavicle -1.93815e-014 -1.66979e-014
rhumerus -39.5751 -15.7256 -79.2426
rradius 35.6183
rwrist -5.7966
rhand 30.5277 -68.2097
rfingers 7.12502
rthumb 54.1807 -86.9248
lclavicle -1.93815e-014 -1.66979e-014
lhumerus -28.1931 1.03556 82.9577
lradius 24.4032
lwrist -4.19995
lhand -20.6952 -13.7456
lfingers 7.12502
lthumb 5.66868 16.1585
rfemur -24.4915 7.96148 19.6407
rtibia 11.6958
rfoot -26.1494 -6.14705
rtoes 4.52863
lfemur -32.3929 -10.854 -19.8575
ltibia 25.0783
lfoot -17.3088 4.32557
ltoes -27.1488
630
root -5.75702 15.9874 -10.0306 42.8863 81.5515 14.999
lowerback -29.1201 -2.77949 -5.37876
upperback -1.14609 -1.50705 -0.735094
thorax 14.2297 -0.899851 1.57004
lowerneck -22.604 4.73952 14.7098
upperneck 43.5132 13.3448 -17.8493
head 31.3459 7.27291 -11.0211
rclavicle -4.47266e-015 3.10104e-014
rhumerus -39.5977 -15.5483 -79.3064
rradius 35.5341
rwrist -5.55487
rhand 30.7256 -67.9801
rfingers 7.12502
rthumb 54.3581 -86.5731
lclavicle -4.47266e-015 3.10104e-014
lhumerus -28.2189 0.511127 83.0287
lradius 24.7733
lwrist -3.61057
lhand -20.8431 -13.6869
lfingers 7.12502
lthumb 5.52579 16.2211
rfemur -24.473 6.38915 20.3369
rtibia 11.5013
rfoot -25.5815 -6.55749
rtoes -4.61533
lfemur -33.5338 -10.6435 -19.7658
ltibia 27.2985
lfoot -17.2091 4.18044
ltoes -29.295
631
root -5.73489 15.9756 -10.0201 44.8604 81.8477 17.0126
lowerback -28.993 -2.90644 -5.51827
upperback -1.15496 -1.64063 -0.704684
thorax 14.1735 -0.968455 1.62931
lowerneck -22.4457 4.84784 14.984
upperneck 43.4316 13.6449 -18.0858
head 31.7442 7.51883 -11.2431
rclavicle 8.64713e-015 1.78906e-014
rhumerus -39.6174 -15.3319 -79.3886
rradius 35.4764
rwrist -5.47059
rhand 30.8308 -67.7236
rfingers 7.12502
rthumb 54.4523 -86.2511
lclavicle 8.64713e-015 1.78906e-014
lhumerus -28.1407 0.420217 83.1069
lradius 24.9492
lwrist -2.95349
lhand -20.9304 -13.7919
lfingers 7.12502
lthumb 5.44157 16.1182
rfemur -24.2023 6.48882 20.2112
rtibia 11.3598
rfoot -25.9169 -7.43896
rtoes -5.91846
lfemur -34.6683 -10.6973 -19.9819
ltibia 29.5962
lfoot -16.8563 4.25176
ltoes -33.6667
632
root -5.71652 15.9671 -10.0151 46.8075 82.0374 19.0453
lowerback -28.7305 -2.91832 -5.59173
upperback -1.18726 -1.64573 -0.748706
thorax 14.0156 -0.971263 1.62667
lowerneck -22.3121 4.91347 15.1974
upperneck 43.3985 13.8749 -18.2482
head 32.1453 7.73523 -11.4245
rclavicle -2.32578e-014 -1.98785e-014
rhumerus -39.7914 -15.1178 -79.464
rradius 35.7025
rwrist -5.58151
rhand 30.9772 -67.5935
rfingers 7.12502
rthumb 54.5833 -86.0294
lclavicle -2.32578e-014 -1.98785e-014
lhumerus -27.8983 0.723655 83.1632
lradius 24.8786
lwrist -2.57896
lhand -21.2875 -13.6068
lfingers 7.12502
lthumb 5.09679 16.3119
rfemur -24.023 6.30394 20.1167
rtibia 11.4493
rfoot -26.1863 -7.61507
rtoes -6.34219
lfemur -35.7695 -10.9438 -20.1641
ltibia 31.8951
lfoot -16.6026 3.9072
ltoes -33.1994
633
root -5.69453 15.9581 -10.0043 46.6626 82.2211 19.0026
lowerback -28.5345 -2.8072 -5.40011
upperback -1.17092 -1.57311 -0.797736
thorax 13.9342 -0.926132 1.50282
lowerneck -22.2266 4.96824 15.3534
upperneck 43.3983 14.0704 -18.3301
head 32.5536 7.92622 -11.5445
rclavicle -2.47487e-014 1.98785e-015
rhumerus -39.8841 -14.8962 -79.6551
rradius 35.785
rwrist -5.33087
rhand 31.4242 -67.266
rfingers 7.12502
rthumb 54.9826 -85.4173
lclavicle -2.47487e-014 1.98785e-015
lhumerus -27.6021 1.19257 83.0509
lradius 24.7638
lwrist -2.53368
lhand -21.4122 -13.4619
lfingers 7.12502
lthumb 4.97639 16.4596
rfemur -23.7497 6.92459 20.2085
rtibia 11.4143
rfoot -26.2576 -7.94112
rtoes -5.66577
lfemur -36.8177 -10.9331 -20.0388
ltibia 34.1527
lfoot -16.2272 3.5628
ltoes -32.0064
634
root -5.66791 15.9506 -9.9866 44.2053 82.5567 16.647
lowerback -28.4284 -2.61636 -5.01477
upperback -1.10406 -1.47699 -0.70021
thorax 13.9529 -0.867312 1.43795
lowerneck -22.1352 5.01298 15.4989
upperneck 43.4001 14.254 -18.4008
head 32.9589 8.11468 -11.6569
rclavicle 1.82882e-014 1.74931e-014
rhumerus -39.7189 -14.7625 -79.7937
rradius 35.5186
rwrist -4.83032
rhand 32.0833 -66.8079
rfingers 7.12502
rthumb 55.5696 -84.5264
lclavicle 1.82882e-014 1.74931e-014
lhumerus -27.3716 1.19624 83.1156
lradius 24.8142
lwrist -2.10963
lhand -21.4128 -13.2763
lfingers 7.12502
lthumb 4.97578 16.6453
rfemur -23.5555 5.01954 21.118
rtibia 11.595
rfoot -26.3858 -5.66594
rtoes -3.37179
lfemur -37.9153 -10.7575 -19.4827
ltibia 36.5114
lfoot -15.7914 3.46846
ltoes -31.9341
635
root -5.64365 15.9431 -9.97164 43.0516 82.8651 15.525
lowerback -28.3287 -2.48672 -4.85507
upperback -1.08437 -1.38625 -0.587118
thorax 13.9248 -0.822096 1.51034
lowerneck -21.9931 5.04641 15.6946
upperneck 43.395 14.4215 -18.4958
head 33.374 8.32253 -11.8133
rclavicle -5.96354e-016 8.74653e-015
rhumerus -39.5382 -14.6985 -79.7993
rradius 35.3126
rwrist -4.64852
rhand 32.4377 -66.5526
rfingers 7.12502
rthumb 55.8842 -84.0318
lclavicle -5.96354e-016 8.74653e-015
lhumerus -27.2494 0.554021 83.3118
lradius 24.9848
lwrist -1.22677
lhand -21.1841 -13.0489
lfingers 7.12502
lthumb 5.19661 16.8674
rfemur -23.3522 3.13943 21.7526
rtibia 11.5073
rfoot -26.4501 -3.70639
rtoes -2.37256
lfemur -39.207 -10.5281 -19.193
ltibia 38.9649
lfoot -15.1373 3.59164
ltoes -34.2927
636
root -5.61231 15.9303 -9.95838 45.4827 83.0526 18.0525
lowerback -28.265 -2.55097 -5.17088
upperback -1.01383 -1.3745 -0.574115
thorax 13.981 -0.840247 1.7006
lowerneck -21.8988 5.11165 15.8648
upperneck 43.3487 14.6492 -18.5923
head 33.8258 8.54415 -11.9429
rclavicle -1.39149e-015 2.0276e-014
rhumerus -39.4333 -14.2432 -79.9565
rradius 35.3409
rwrist -5.08311
rhand 32.0635 -66.2206
rfingers 7.12502
rthumb 55.5519 -83.9524
lclavicle -1.39149e-015 2.0276e-014
lhumerus -26.9318 0.663658 83.2551
lradius 24.8335
lwrist -1.09605
lhand -20.7798 -13.1248
lfingers 7.12502
lthumb 5.58697 16.7815
rfemur -22.7658 5.05058 21.2532
rtibia 10.8542
rfoot -26.5382 -5.87319
rtoes -4.25696
lfemur -40.375 -10.4896 -19.52
ltibia 41.2918
lfoot -14.4495 3.64704
ltoes -36.9825
637
root -5.5816 15.9247 -9.94958 41.9516 82.8734 14.6989
lowerback -28.1229 -2.20318 -4.89807
upperback -0.917121 -1.03484 -0.501079
thorax 14.0025 -0.679499 1.76282
lowerneck -21.8529 5.17361 15.9129
upperneck 43.3022 14.9159 -18.6522
head 34.27 8.74256 -11.9868
rclavicle -3.37934e-015 2.46493e-014
rhumerus -39.3325 -13.9549 -80.0549
rradius 35.3699
rwrist -5.34327
rhand 31.6188 -65.9137
rfingers 7.12502
rthumb 55.1561 -83.9388
lclavicle -3.37934e-015 2.46493e-014
lhumerus -26.5177 1.51295 83.1906
lradius 24.4722
lwrist -1.86648
lhand -20.7397 -13.2205
lfingers 7.12502
lthumb 5.62567 16.6848
rfemur -22.6254 4.97576 21.6557
rtibia 11.3236
rfoot -27.0392 -5.09708
rtoes -2.99507
lfemur -41.2357 -9.98937 -19.3047
ltibia 43.3001
lfoot -13.8394 4.01382
ltoes -38.7524
638
root -5.55213 15.9206 -9.9334 39.306 82.6041 12.2786
lowerback -27.8669 -1.94885 -4.80055
upperback -1.189 -0.770623 -0.469691
thorax 14.3274 -0.572529 1.94513
lowerneck -21.7546 5.24016 15.8996
upperneck 43.2574 15.2367 -18.7066
head 34.6942 8.94075 -11.9819
rclavicle 1.74931e-014 -9.14409e-015
rhumerus -38.9635 -13.8006 -80.1014
rradius 35.0741
rwrist -5.16035
rhand 32.0156 -65.8055
rfingers 7.12502
rthumb 55.5094 -83.5692
lclavicle 1.74931e-014 -9.14409e-015
lhumerus -26.3356 2.03149 83.1735
lradius 24.382
lwrist -2.23123
lhand -20.7593 -13.1735
lfingers 7.12502
lthumb 5.60671 16.7323
rfemur -22.0363 7.4294 21.6579
rtibia 10.9178
rfoot -27.0659 -7.60057
rtoes -4.79219
lfemur -42.026 -9.53536 -19.167
ltibia 45.1393
lfoot -13.1838 4.31003
ltoes -40.2754
639
root -5.51716 15.9154 -9.91466 38.0691 82.6918 11.0466
lowerback -27.8849 -1.91736 -4.74693
upperback -1.12218 -0.760809 -0.383293
thorax 14.4168 -0.573196 2.01742
lowerneck -21.622 5.35078 16.0186
upperneck 43.1721 15.5681 -18.7809
head 35.1397 9.17647 -12.0269
rclavicle 1.30701e-014 4.77083e-015
rhumerus -38.3174 -13.4672 -80.2856
rradius 34.4327
rwrist -4.87915
rhand 32.7478 -65.4155
rfingers 7.12502
rthumb 56.1589 -82.6813
lclavicle 1.30701e-014 4.77083e-015
lhumerus -26.2277 2.24525 82.973
lradius 24.4053
lwrist -2.15948
lhand -20.4944 -13.3459
lfingers 7.12502
lthumb 5.86247 16.553
rfemur -21.9097 6.8934 22.0524
rtibia 11.0819
rfoot -27.3048 -6.96613
rtoes -4.8203
lfemur -43.1473 -9.23262 -18.9553
ltibia 46.928
lfoot -12.7889 4.22396
ltoes -41.2474
